<?xml version="1.0" encoding="UTF-8"?>
<svg xmlns="http://www.w3.org/2000/svg" xmlns:xlink="http://www.w3.org/1999/xlink" width="182px" height="28px" viewBox="0 0 183 28" version="1.1">
<g id="surface1">
<path style=" stroke:none;fill-rule:nonzero;fill:rgb(27.058824%,27.843137%,59.607843%);fill-opacity:1;" d="M 6.585938 0 L 35.765625 0 C 36.710938 0.363281 37.488281 1.242188 37.457031 2.300781 C 37.480469 7.914062 37.453125 13.527344 37.46875 19.140625 C 37.5 21.707031 36.628906 24.394531 34.683594 26.140625 C 33.503906 27.238281 31.9375 27.804688 30.359375 28 L 2.214844 28 C 1.074219 27.839844 0.164062 26.933594 0 25.789062 L 0 8.070312 C 0.160156 6.363281 0.570312 4.636719 1.558594 3.210938 C 2.679688 1.488281 4.546875 0.285156 6.585938 0 M 3.648438 3.894531 C 2.519531 5.277344 2.125 7.113281 2.121094 8.863281 C 2.117188 13.765625 2.121094 18.667969 2.117188 23.570312 C 2.125 24.351562 2.046875 25.148438 2.253906 25.914062 C 11.4375 25.851562 20.621094 25.914062 29.804688 25.882812 C 31.136719 25.847656 32.488281 25.378906 33.453125 24.425781 C 34.792969 23.125 35.320312 21.199219 35.34375 19.371094 C 35.367188 13.683594 35.324219 7.992188 35.367188 2.304688 C 35.3125 2.246094 35.199219 2.125 35.140625 2.0625 C 26.066406 2.007812 16.988281 2.054688 7.914062 2.035156 C 6.3125 1.984375 4.667969 2.632812 3.648438 3.894531 Z M 3.648438 3.894531 "/>
<path style=" stroke:none;fill-rule:nonzero;fill:rgb(27.058824%,27.843137%,59.607843%);fill-opacity:1;" d="M 164.171875 2.191406 C 164.675781 1.835938 165.386719 1.925781 165.949219 2.105469 C 166.109375 2.949219 166 3.8125 166.027344 4.664062 C 166.046875 11.125 165.988281 17.589844 166.058594 24.050781 C 166.386719 24.015625 166.71875 24.019531 167.050781 24.054688 C 167.253906 24.535156 167.550781 25.136719 167.296875 25.640625 C 166.429688 26.097656 165.164062 26.019531 164.554688 25.175781 C 164.050781 24.433594 164.132812 23.496094 164.128906 22.640625 C 164.164062 15.824219 164.074219 9.003906 164.171875 2.191406 Z M 164.171875 2.191406 "/>
<path style=" stroke:none;fill-rule:nonzero;fill:rgb(27.058824%,27.843137%,59.607843%);fill-opacity:1;" d="M 55.285156 2.527344 C 55.429688 1.730469 56.4375 1.992188 57.007812 2.066406 C 57.355469 2.71875 57.503906 3.457031 57.742188 4.152344 C 60.023438 11.289062 62.300781 18.429688 64.632812 25.550781 C 64.171875 26.046875 63.449219 25.921875 62.84375 25.875 C 62.578125 25.746094 62.511719 25.429688 62.410156 25.179688 C 61.695312 22.9375 61 20.691406 60.28125 18.449219 C 60.207031 17.992188 59.660156 18.214844 59.355469 18.15625 C 57 18.164062 54.640625 18.183594 52.285156 18.148438 C 51.367188 20.726562 50.6875 23.394531 49.628906 25.917969 C 49.15625 25.898438 48.683594 25.90625 48.214844 25.839844 C 47.832031 25.722656 47.871094 25.289062 48.003906 24.996094 C 50.421875 17.503906 52.867188 10.019531 55.285156 2.527344 M 55.941406 6.660156 C 54.960938 9.898438 53.910156 13.113281 52.882812 16.335938 C 55.132812 16.316406 57.378906 16.359375 59.632812 16.308594 C 58.429688 12.816406 57.339844 9.285156 56.308594 5.734375 C 56.167969 6.035156 56.042969 6.34375 55.941406 6.660156 Z M 55.941406 6.660156 "/>
<path style=" stroke:none;fill-rule:nonzero;fill:rgb(27.058824%,27.843137%,59.607843%);fill-opacity:1;" d="M 134.597656 2.15625 C 135.199219 1.828125 136.644531 1.742188 136.453125 2.796875 C 136.441406 10.269531 136.449219 17.746094 136.445312 25.222656 C 136.585938 26.078125 135.5 25.941406 134.960938 25.878906 C 134.386719 25.476562 134.738281 24.605469 134.613281 24 C 133.578125 24.863281 132.371094 25.5625 131.03125 25.800781 C 128.863281 26.191406 126.421875 25.488281 125.019531 23.730469 C 123.71875 22.117188 123.289062 19.988281 123.238281 17.960938 C 123.160156 15.515625 123.882812 12.9375 125.648438 11.179688 C 127.953125 8.773438 132.007812 8.582031 134.59375 10.648438 C 134.53125 7.820312 134.480469 4.980469 134.597656 2.15625 M 125.328125 16.089844 C 125.105469 17.988281 125.160156 20.03125 126.082031 21.753906 C 126.828125 23.222656 128.460938 24.136719 130.097656 24.0625 C 131.855469 23.992188 133.328125 22.875 134.546875 21.699219 C 134.535156 18.753906 134.539062 15.808594 134.546875 12.863281 C 133.199219 11.710938 131.460938 10.769531 129.636719 11.125 C 127.265625 11.527344 125.707031 13.835938 125.328125 16.089844 Z M 125.328125 16.089844 "/>
<path style=" stroke:none;fill-rule:nonzero;fill:rgb(27.058824%,27.843137%,59.607843%);fill-opacity:1;" d="M 147.152344 2.792969 C 146.921875 1.734375 148.441406 1.800781 149.015625 2.199219 C 149.097656 5.179688 149.054688 8.167969 149.015625 11.148438 C 150.28125 10.179688 151.75 9.390625 153.359375 9.238281 C 155.183594 9.089844 157.144531 9.660156 158.386719 11.058594 C 159.890625 12.730469 160.359375 15.082031 160.328125 17.269531 C 160.375 19.363281 159.796875 21.5 158.550781 23.195312 C 157.523438 24.589844 155.953125 25.585938 154.234375 25.832031 C 152.394531 26.148438 150.539062 25.453125 149.042969 24.410156 C 148.914062 24.757812 148.976562 25.226562 148.675781 25.472656 C 148.21875 25.566406 147.75 25.542969 147.296875 25.464844 C 147.1875 25.234375 147.136719 24.992188 147.152344 24.742188 C 147.160156 17.421875 147.160156 10.109375 147.152344 2.792969 M 152.496094 11.273438 C 151.1875 11.707031 150.066406 12.554688 149.039062 13.453125 C 149.058594 16.378906 149.074219 19.3125 149.03125 22.238281 C 150.59375 23.511719 152.738281 24.542969 154.761719 23.800781 C 156.984375 23.023438 158.132812 20.621094 158.316406 18.402344 C 158.457031 16.464844 158.335938 14.351562 157.210938 12.699219 C 156.203125 11.214844 154.152344 10.730469 152.496094 11.273438 Z M 152.496094 11.273438 "/>
<path style=" stroke:none;fill-rule:nonzero;fill:rgb(27.058824%,27.843137%,59.607843%);fill-opacity:1;" d="M 141.109375 3.808594 C 142.28125 3.1875 143.796875 4.492188 143.242188 5.738281 C 142.921875 6.847656 141.320312 7.101562 140.609375 6.238281 C 139.898438 5.53125 140.175781 4.179688 141.109375 3.808594 Z M 141.109375 3.808594 "/>
<path style=" stroke:none;fill-rule:nonzero;fill:rgb(27.058824%,27.843137%,59.607843%);fill-opacity:1;" d="M 68.691406 11.449219 C 70.320312 9.601562 72.996094 8.800781 75.371094 9.417969 C 76.6875 9.765625 77.894531 10.550781 78.75 11.613281 C 78.359375 12.058594 77.953125 12.492188 77.519531 12.890625 C 76.546875 12.089844 75.519531 11.199219 74.207031 11.085938 C 72.214844 10.828125 70.273438 12.078125 69.402344 13.839844 C 68.226562 16.164062 68.222656 19.082031 69.386719 21.414062 C 70.332031 23.347656 72.644531 24.445312 74.734375 23.945312 C 75.992188 23.707031 77.011719 22.890625 77.980469 22.109375 C 78.375 22.519531 78.746094 22.949219 79.097656 23.394531 C 77.007812 25.925781 73.082031 26.675781 70.234375 25.015625 C 68.171875 23.878906 66.992188 21.601562 66.671875 19.328125 C 66.261719 16.589844 66.785156 13.550781 68.691406 11.449219 Z M 68.691406 11.449219 "/>
<path style=" stroke:none;fill-rule:nonzero;fill:rgb(27.058824%,27.843137%,59.607843%);fill-opacity:1;" d="M 84.675781 10.234375 C 86.820312 8.878906 89.773438 8.847656 91.871094 10.316406 C 92.355469 10.695312 93.003906 11.019531 93.179688 11.652344 C 92.902344 12.152344 92.457031 12.519531 92.03125 12.886719 C 91.164062 12.164062 90.265625 11.367188 89.117188 11.152344 C 87.355469 10.757812 85.472656 11.597656 84.433594 13.042969 C 83.121094 14.84375 82.796875 17.238281 83.226562 19.390625 C 83.503906 20.878906 84.226562 22.371094 85.511719 23.226562 C 86.898438 24.179688 88.773438 24.3125 90.296875 23.617188 C 91.089844 23.296875 91.703125 22.6875 92.402344 22.214844 C 92.976562 22.347656 93.441406 23 93.550781 23.554688 C 91.503906 25.757812 88.0625 26.582031 85.304688 25.285156 C 83.347656 24.4375 81.996094 22.558594 81.460938 20.527344 C 80.945312 18.566406 80.953125 16.457031 81.523438 14.511719 C 82.035156 12.773438 83.140625 11.203125 84.675781 10.234375 Z M 84.675781 10.234375 "/>
<path style=" stroke:none;fill-rule:nonzero;fill:rgb(27.058824%,27.843137%,59.607843%);fill-opacity:1;" d="M 101.804688 9.417969 C 102.835938 9.105469 104.097656 9.078125 104.976562 9.777344 C 104.964844 10.332031 104.898438 11.035156 104.414062 11.386719 C 103.683594 11.261719 102.933594 10.964844 102.203125 11.246094 C 101.074219 11.65625 100.304688 12.667969 99.730469 13.679688 C 99.492188 14.140625 99.191406 14.609375 99.222656 15.148438 C 99.210938 18.582031 99.246094 22.015625 99.210938 25.453125 C 99.25 25.839844 98.753906 25.941406 98.464844 25.910156 C 98.066406 25.886719 97.324219 26.039062 97.351562 25.429688 C 97.335938 20.367188 97.34375 15.308594 97.34375 10.246094 C 97.207031 9.378906 98.3125 9.570312 98.851562 9.632812 C 99.292969 10.113281 99.015625 10.867188 99.113281 11.449219 C 99.878906 10.621094 100.691406 9.753906 101.804688 9.417969 Z M 101.804688 9.417969 "/>
<path style=" stroke:none;fill-rule:nonzero;fill:rgb(27.058824%,27.843137%,59.607843%);fill-opacity:1;" d="M 109.726562 10.613281 C 111.964844 8.757812 115.605469 8.695312 117.734375 10.753906 C 119.433594 12.429688 119.863281 14.972656 119.753906 17.269531 C 119.75 17.628906 119.605469 18.1875 119.136719 18.105469 C 115.632812 18.113281 112.125 18.101562 108.617188 18.105469 C 108.835938 19.691406 109.210938 21.375 110.386719 22.539062 C 111.75 24.007812 113.984375 24.382812 115.851562 23.804688 C 116.707031 23.59375 117.410156 23.046875 118.1875 22.65625 C 118.761719 22.839844 119.074219 23.605469 119.140625 24.171875 C 116.445312 26.300781 112.242188 26.59375 109.519531 24.351562 C 107.394531 22.613281 106.5625 19.722656 106.707031 17.050781 C 106.789062 14.621094 107.78125 12.136719 109.726562 10.613281 M 111.035156 11.933594 C 109.648438 12.953125 108.984375 14.640625 108.6875 16.28125 C 111.738281 16.269531 114.789062 16.238281 117.839844 16.296875 C 117.765625 14.863281 117.503906 13.332031 116.5 12.234375 C 115.128906 10.71875 112.597656 10.710938 111.035156 11.933594 Z M 111.035156 11.933594 "/>
<path style=" stroke:none;fill-rule:nonzero;fill:rgb(27.058824%,27.843137%,59.607843%);fill-opacity:1;" d="M 172.574219 10.867188 C 174.707031 8.882812 178.3125 8.601562 180.589844 10.488281 C 182.207031 11.828125 182.785156 13.996094 182.90625 16.015625 L 182.90625 17.171875 C 182.859375 17.445312 182.796875 17.71875 182.710938 17.984375 C 182.335938 18.167969 181.910156 18.09375 181.511719 18.117188 C 178.273438 18.089844 175.03125 18.117188 171.792969 18.101562 C 171.949219 19.292969 172.167969 20.515625 172.804688 21.558594 C 173.535156 22.867188 174.894531 23.78125 176.371094 23.992188 C 177.878906 24.242188 179.4375 23.832031 180.707031 23.003906 C 181 22.855469 181.4375 22.464844 181.710938 22.855469 C 181.964844 23.25 182.363281 23.726562 182.214844 24.21875 C 179.648438 26.230469 175.726562 26.554688 173.027344 24.613281 C 170.859375 23.070312 169.832031 20.332031 169.851562 17.734375 C 169.78125 15.210938 170.644531 12.558594 172.574219 10.867188 M 174.15625 11.964844 C 172.808594 13 172.117188 14.65625 171.859375 16.296875 C 174.910156 16.246094 177.960938 16.261719 181.011719 16.285156 C 180.890625 14.839844 180.636719 13.277344 179.605469 12.179688 C 178.210938 10.699219 175.699219 10.730469 174.15625 11.964844 Z M 174.15625 11.964844 "/>
<path style=" stroke:none;fill-rule:nonzero;fill:rgb(27.058824%,27.843137%,59.607843%);fill-opacity:1;" d="M 9.109375 9.597656 C 15.558594 9.605469 22.007812 9.605469 28.460938 9.597656 C 28.457031 10.445312 28.457031 11.289062 28.457031 12.136719 C 22.007812 12.121094 15.558594 12.144531 9.109375 12.125 C 9.113281 11.285156 9.109375 10.441406 9.109375 9.597656 Z M 9.109375 9.597656 "/>
<path style=" stroke:none;fill-rule:nonzero;fill:rgb(27.058824%,27.843137%,59.607843%);fill-opacity:1;" d="M 141.074219 9.632812 C 141.648438 9.605469 142.820312 9.308594 142.71875 10.25 C 142.726562 15.238281 142.71875 20.230469 142.722656 25.21875 C 142.777344 25.546875 142.605469 25.957031 142.207031 25.898438 C 141.738281 25.875 140.875 26.121094 140.816406 25.429688 C 140.785156 20.535156 140.824219 15.636719 140.796875 10.742188 C 140.835938 10.371094 140.707031 9.882812 141.074219 9.632812 Z M 141.074219 9.632812 "/>
<path style=" stroke:none;fill-rule:nonzero;fill:rgb(27.058824%,27.843137%,59.607843%);fill-opacity:1;" d="M 29.191406 16.6875 C 31.011719 16.238281 32.828125 18.300781 32.011719 20.046875 C 31.425781 21.804688 28.816406 22.207031 27.71875 20.726562 C 26.515625 19.355469 27.386719 16.945312 29.191406 16.6875 Z M 29.191406 16.6875 "/>
</g>
</svg>
